<?xml version="1.0" encoding="utf-8"?>
<svg version="1.1" xmlns:xlink="http://www.w3.org/1999/xlink" width="16px" height="16px" xmlns="http://www.w3.org/2000/svg">
  <g transform="matrix(1 0 0 1 -45 -207 )">
    <path d="M 15.1071428571429 6.14772727272727  C 15.4464285714286 5.85227272727273  15.7440476190476 5.52272727272727  16 5.15909090909091  L 16 14.1818181818182  C 16 14.6818181818182  15.860119047619 15.1098484848485  15.5803571428571 15.4659090909091  C 15.3005952380952 15.8219696969697  14.9642857142857 16  14.5714285714286 16  L 1.42857142857143 16  C 1.03571428571429 16  0.699404761904762 15.8219696969697  0.419642857142857 15.4659090909091  C 0.139880952380952 15.1098484848485  0 14.6818181818182  0 14.1818181818182  L 0 5.15909090909091  C 0.261904761904762 5.53030303030303  0.5625 5.85984848484848  0.901785714285714 6.14772727272727  C 3.05654761904762 8.01136363636364  4.53571428571429 9.31818181818182  5.33928571428571 10.0681818181818  C 5.67857142857143 10.3863636363636  5.95386904761905 10.6344696969697  6.16517857142857 10.8125  C 6.3764880952381 10.9905303030303  6.6577380952381 11.1723484848485  7.00892857142857 11.3579545454545  C 7.36011904761905 11.5435606060606  7.6875 11.6363636363636  7.99107142857143 11.6363636363636  L 8 11.6363636363636  L 8.00892857142857 11.6363636363636  C 8.3125 11.6363636363636  8.63988095238095 11.5435606060606  8.99107142857143 11.3579545454545  C 9.34226190476191 11.1723484848485  9.62351190476191 10.9905303030303  9.83482142857143 10.8125  C 10.046130952381 10.6344696969697  10.3214285714286 10.3863636363636  10.6607142857143 10.0681818181818  C 11.672619047619 9.13636363636364  13.1547619047619 7.82954545454546  15.1071428571429 6.14772727272727  Z M 15.5758928571429 0.534090909090908  C 15.858630952381 0.890151515151514  16 1.31818181818182  16 1.81818181818182  C 16 2.41666666666666  15.8541666666667 2.98863636363636  15.5625 3.53409090909091  C 15.2708333333333 4.07954545454546  14.9077380952381 4.54545454545455  14.4732142857143 4.93181818181818  C 12.235119047619 6.90909090909091  10.8422619047619 8.14015151515152  10.2946428571429 8.625  C 10.235119047619 8.6780303030303  10.108630952381 8.79356060606061  9.91517857142857 8.97159090909091  C 9.72172619047619 9.14962121212121  9.56101190476191 9.29356060606061  9.43303571428571 9.40340909090909  C 9.30505952380952 9.51325757575757  9.15029761904762 9.63636363636364  8.96875 9.77272727272727  C 8.78720238095238 9.90909090909091  8.61607142857143 10.0113636363636  8.45535714285714 10.0795454545455  C 8.29464285714286 10.1477272727273  8.14583333333333 10.1818181818182  8.00892857142857 10.1818181818182  L 8 10.1818181818182  L 7.99107142857143 10.1818181818182  C 7.85416666666667 10.1818181818182  7.70535714285714 10.1477272727273  7.54464285714286 10.0795454545455  C 7.38392857142857 10.0113636363636  7.21279761904762 9.90909090909091  7.03125 9.77272727272727  C 6.84970238095238 9.63636363636364  6.69494047619048 9.51325757575757  6.56696428571429 9.40340909090909  C 6.4389880952381 9.29356060606061  6.27827380952381 9.14962121212121  6.08482142857143 8.97159090909091  C 5.89136904761905 8.79356060606061  5.76488095238095 8.6780303030303  5.70535714285714 8.625  C 5.16369047619048 8.14015151515152  4.38392857142857 7.44886363636364  3.36607142857143 6.55113636363636  C 2.34821428571429 5.65340909090909  1.73809523809524 5.11363636363636  1.53571428571429 4.93181818181818  C 1.16666666666667 4.61363636363636  0.818452380952381 4.17613636363636  0.491071428571429 3.61931818181818  C 0.163690476190476 3.0625  0 2.54545454545455  0 2.06818181818182  C 0 1.47727272727273  0.123511904761905 0.984848484848483  0.370535714285714 0.590909090909092  C 0.617559523809524 0.196969696969695  0.970238095238095 0  1.42857142857143 0  L 14.5714285714286 0  C 14.9583333333333 0  15.2931547619048 0.178030303030301  15.5758928571429 0.534090909090908  Z " fill-rule="nonzero" fill="#555555" stroke="none" transform="matrix(1 0 0 1 45 207 )" />
  </g>
</svg>